<svg xmlns="http://www.w3.org/2000/svg" width="263" height="263" viewBox="0 0 263 263" version="1.1"><path d="M 141.250 90.706 C 137.153 91.495, 138.902 92.651, 147.345 94.735 C 154.319 96.457, 160.533 98.657, 169.914 102.726 C 170.901 103.155, 171.081 102.940, 170.510 102.015 C 169.961 101.128, 170.077 100.930, 170.862 101.415 C 171.506 101.813, 171.788 102.535, 171.488 103.019 C 170.783 104.160, 174.730 106.285, 176.045 105.472 C 176.598 105.131, 176.926 105.391, 176.775 106.051 C 176.624 106.710, 177.125 107.477, 177.889 107.755 C 178.821 108.093, 179.017 107.837, 178.485 106.975 C 177.949 106.108, 178.088 105.936, 178.912 106.446 C 179.584 106.861, 179.880 107.454, 179.570 107.763 C 178.911 108.422, 190.080 120.450, 191.378 120.480 C 191.861 120.491, 192.923 121.625, 193.738 123 C 195.017 125.160, 195.019 125.262, 193.749 123.750 C 191.325 120.864, 190.889 121.772, 193.029 125.250 C 198.843 134.702, 200.939 154.490, 197.586 168.294 C 196.679 172.030, 196.245 175.587, 196.623 176.198 C 197 176.809, 196.871 177.039, 196.337 176.708 C 195.802 176.377, 194.157 178.568, 192.682 181.576 C 189.650 187.758, 189.489 188.412, 191.250 187.399 C 191.976 186.981, 192.151 187.061, 191.667 187.590 C 191.208 188.090, 190.533 188.532, 190.167 188.571 C 189.800 188.609, 186.800 191.309, 183.500 194.571 C 176.612 201.378, 170.598 204.864, 158.537 209.043 C 150.487 211.833, 149.112 212, 134.248 212 C 118.783 212, 118.309 211.935, 108.520 208.482 C 103.035 206.547, 95.917 203.397, 92.702 201.482 C 86.307 197.672, 85.509 197.379, 86.633 199.250 C 87.130 200.077, 86.803 200.029, 85.668 199.107 C 84.724 198.342, 84.184 197.483, 84.467 197.200 C 85.135 196.532, 83.039 194, 81.819 194 C 81.303 194, 81.206 194.563, 81.602 195.250 C 81.998 195.938, 81.125 195.409, 79.661 194.076 C 76.472 191.170, 76.061 189.874, 79.192 192.595 C 80.398 193.643, 79.645 192.384, 77.520 189.797 C 75.395 187.211, 73.314 185.306, 72.897 185.564 C 72.480 185.822, 71.813 185.506, 71.415 184.862 C 70.937 184.088, 71.127 183.960, 71.975 184.485 C 73.471 185.409, 73.453 185.362, 69.368 177.500 C 67.653 174.200, 65.744 169.115, 65.125 166.201 C 63.487 158.485, 63.713 142.331, 65.545 136.159 C 66.395 133.297, 66.776 130.446, 66.391 129.823 C 65.973 129.148, 66.137 128.966, 66.795 129.373 C 67.403 129.749, 68.372 129.173, 68.950 128.094 C 70.339 125.499, 70.276 124.721, 68.750 125.613 C 68.063 126.015, 68.348 125.377, 69.384 124.195 C 70.420 123.014, 71.588 122.246, 71.981 122.488 C 72.373 122.730, 73.972 121.595, 75.534 119.964 C 77.096 118.334, 78.010 117, 77.565 117 C 77.119 117, 77.315 116.325, 78 115.500 C 78.685 114.675, 79.752 114.014, 80.372 114.032 C 80.993 114.049, 80.600 114.785, 79.500 115.666 C 77.314 117.418, 77.509 117.359, 87 113.405 C 92.101 111.279, 95.222 110.675, 101.500 110.598 C 108.589 110.511, 110.294 110.876, 116.474 113.802 C 120.310 115.619, 124.923 118.229, 126.724 119.603 C 128.526 120.977, 130 121.625, 130 121.042 C 130 120.459, 131.543 120.993, 133.428 122.229 C 135.314 123.465, 136.703 124.630, 136.515 124.818 C 136.327 125.006, 134.897 124.354, 133.337 123.369 L 130.500 121.578 132.405 123.789 C 134.872 126.652, 138 126.716, 138 123.904 C 138 121.475, 134.216 115.748, 133.077 116.453 C 132.653 116.715, 131 115.525, 129.403 113.810 C 127.806 112.094, 127.175 111.022, 128 111.426 C 128.825 111.830, 128.230 110.994, 126.678 109.566 C 125.125 108.139, 123.368 107.272, 122.773 107.640 C 122.132 108.036, 121.979 107.843, 122.398 107.165 C 123.189 105.885, 116.611 102.698, 105.663 99.054 C 99.816 97.108, 97.318 96.844, 88.171 97.204 C 78.863 97.569, 76.649 98.017, 70.840 100.708 C 64.366 103.707, 55 111.166, 55 113.324 C 55 113.911, 56.688 112.842, 58.750 110.946 L 62.500 107.500 59.102 111.201 C 57.233 113.236, 55.264 114.811, 54.727 114.701 C 54.190 114.590, 53.523 115.125, 53.245 115.889 C 52.907 116.821, 53.163 117.017, 54.025 116.485 C 54.873 115.960, 55.063 116.088, 54.585 116.862 C 54.187 117.506, 53.429 117.765, 52.899 117.438 C 51.582 116.624, 43.627 134.004, 41.656 142 C 40.775 145.575, 39.759 152.775, 39.398 158 C 38.563 170.104, 41.071 181.052, 48.064 195.828 C 56.492 213.636, 66.248 223.690, 82.663 231.481 C 99.655 239.547, 113.558 243.016, 131.651 243.706 C 144.838 244.209, 146.426 244.067, 154.987 241.611 C 170.225 237.240, 189.056 226.618, 188.167 222.896 C 187.983 222.128, 188.182 221.849, 188.609 222.276 C 189.423 223.089, 200 213.233, 200 211.662 C 200 211.163, 199.213 211.365, 198.250 212.110 C 196.825 213.214, 196.854 213.050, 198.405 211.233 C 200.506 208.770, 201.469 208.313, 200.478 210.250 C 200.127 210.938, 201 210.237, 202.419 208.694 C 205.119 205.760, 205.897 203.366, 203.750 204.601 C 203.024 205.019, 202.849 204.939, 203.333 204.410 C 203.792 203.910, 204.692 203.500, 205.333 203.500 C 207.041 203.500, 216.559 183.789, 218.411 176.415 C 221.103 165.699, 220.253 149.739, 216.366 138 C 212.734 127.033, 207.955 119.085, 199.834 110.507 C 194.808 105.197, 191.157 102.110, 190.294 102.441 C 189.515 102.740, 189.170 102.533, 189.516 101.975 C 190.538 100.320, 174.141 93.118, 165.662 91.498 C 158.344 90.099, 146.409 89.712, 141.250 90.706 M 144 92.117 C 144 92.741, 144.882 93.003, 146 92.710 C 147.100 92.423, 148 92.595, 148 93.094 C 148 93.592, 148.477 94, 149.059 94 C 149.641 94, 149.795 93.478, 149.401 92.840 C 148.869 91.979, 150.854 91.817, 157.092 92.215 C 161.716 92.509, 164.150 92.410, 162.500 91.994 C 157.587 90.754, 144 90.844, 144 92.117 M 166.750 93.662 C 167.438 93.940, 168.563 93.940, 169.250 93.662 C 169.938 93.385, 169.375 93.158, 168 93.158 C 166.625 93.158, 166.063 93.385, 166.750 93.662 M 171.813 94.683 C 172.534 94.972, 173.397 94.936, 173.729 94.604 C 174.061 94.272, 173.471 94.036, 172.417 94.079 C 171.252 94.127, 171.015 94.364, 171.813 94.683 M 175.083 95.365 C 175.313 95.565, 176.625 96.265, 178 96.920 C 180.357 98.042, 180.389 98.022, 178.559 96.555 C 176.966 95.279, 173.711 94.164, 175.083 95.365 M 162 98 C 162.825 98.533, 163.950 98.969, 164.500 98.969 C 165.050 98.969, 164.825 98.533, 164 98 C 163.175 97.467, 162.050 97.031, 161.500 97.031 C 160.950 97.031, 161.175 97.467, 162 98 M 166.733 100.124 C 167.412 100.808, 168.219 101.115, 168.526 100.807 C 168.834 100.499, 168.279 99.940, 167.293 99.564 C 165.868 99.022, 165.753 99.136, 166.733 100.124 M 72.250 101.031 C 68.901 102.377, 69.527 103.061, 73 101.850 C 74.650 101.275, 76 100.623, 76 100.402 C 76 99.809, 74.783 100.013, 72.250 101.031 M 106 101 C 106.825 101.533, 107.950 101.969, 108.500 101.969 C 109.050 101.969, 108.825 101.533, 108 101 C 107.175 100.467, 106.050 100.031, 105.500 100.031 C 104.950 100.031, 105.175 100.467, 106 101 M 111 103 C 111.825 103.533, 113.175 103.945, 114 103.914 C 114.989 103.878, 114.819 103.567, 113.500 103 C 110.751 101.819, 109.172 101.819, 111 103 M 64.861 105.056 C 63.005 106.673, 62.928 106.894, 64.500 106.090 C 67.892 104.355, 69.554 103.031, 68.361 103.015 C 67.734 103.007, 66.159 103.925, 64.861 105.056 M 193 105.500 C 194.292 106.875, 195.574 108, 195.849 108 C 196.124 108, 195.292 106.875, 194 105.500 C 192.708 104.125, 191.426 103, 191.151 103 C 190.876 103, 191.708 104.125, 193 105.500 M 116.483 104.973 C 116.750 105.405, 117.876 105.996, 118.986 106.286 C 120.095 106.576, 120.784 106.460, 120.517 106.027 C 120.250 105.595, 119.124 105.004, 118.014 104.714 C 116.905 104.424, 116.216 104.540, 116.483 104.973 M 95.813 108.683 C 96.534 108.972, 97.397 108.936, 97.729 108.604 C 98.061 108.272, 97.471 108.036, 96.417 108.079 C 95.252 108.127, 95.015 108.364, 95.813 108.683 M 109 109.409 C 115.843 111.992, 116.458 112.098, 113 110.103 C 111.075 108.993, 108.600 108.085, 107.500 108.086 C 106.254 108.087, 106.820 108.586, 109 109.409 M 181.910 109.832 C 182.450 110.840, 183.676 112.302, 184.637 113.082 C 185.717 113.960, 185.475 113.261, 184.003 111.250 C 181.377 107.662, 180.392 106.995, 181.910 109.832 M 198 110.313 C 198 110.485, 199.463 111.948, 201.250 113.563 L 204.500 116.500 201.563 113.250 C 198.825 110.221, 198 109.540, 198 110.313 M 85 112 C 84.175 112.533, 83.950 112.969, 84.500 112.969 C 85.050 112.969, 86.175 112.533, 87 112 C 87.825 111.467, 88.050 111.031, 87.500 111.031 C 86.950 111.031, 85.825 111.467, 85 112 M 117.733 113.124 C 118.412 113.808, 119.219 114.115, 119.526 113.807 C 119.834 113.499, 119.279 112.940, 118.293 112.564 C 116.868 112.022, 116.753 112.136, 117.733 113.124 M 130.500 114 C 131.495 115.100, 132.481 116, 132.690 116 C 132.899 116, 132.589 115.100, 132 114 C 131.411 112.900, 130.426 112, 129.810 112 C 129.194 112, 129.505 112.900, 130.500 114 M 121 114.430 C 121 114.705, 121.900 115.411, 123 116 C 124.100 116.589, 125 116.845, 125 116.570 C 125 116.295, 124.100 115.589, 123 115 C 121.900 114.411, 121 114.155, 121 114.430 M 206.222 120.549 C 207.624 122.777, 209.784 126.953, 211.022 129.830 C 212.260 132.707, 213.470 134.863, 213.711 134.622 C 214.390 133.943, 206.970 119.219, 205.223 117.779 C 204.369 117.075, 204.819 118.322, 206.222 120.549 M 51.459 120.067 C 51.096 120.653, 51.014 121.348, 51.276 121.610 C 51.538 121.872, 52.019 121.392, 52.345 120.543 C 53.021 118.781, 52.445 118.471, 51.459 120.067 M 49.459 124.067 C 49.096 124.653, 49.014 125.348, 49.276 125.610 C 49.538 125.872, 50.019 125.392, 50.345 124.543 C 51.021 122.781, 50.445 122.471, 49.459 124.067 M 196.564 130.293 C 196.940 131.279, 197.499 131.834, 197.807 131.526 C 198.115 131.219, 197.808 130.412, 197.124 129.733 C 196.136 128.753, 196.022 128.868, 196.564 130.293 M 63.624 134.539 C 63.281 135.432, 63.029 136.689, 63.063 137.332 C 63.098 137.974, 63.558 137.422, 64.085 136.105 C 64.612 134.787, 64.864 133.531, 64.645 133.312 C 64.426 133.093, 63.966 133.645, 63.624 134.539 M 198.086 133.500 C 198.190 135.394, 199.856 138.584, 199.914 137 C 199.945 136.175, 199.533 134.825, 199 134 C 198.467 133.175, 198.055 132.950, 198.086 133.500 M 43.571 138.571 C 43.204 140.037, 43.096 141.429, 43.331 141.665 C 43.567 141.900, 44.061 140.894, 44.429 139.429 C 44.796 137.963, 44.904 136.571, 44.669 136.335 C 44.433 136.100, 43.939 137.106, 43.571 138.571 M 62.252 142.500 C 62.263 144.700, 62.468 145.482, 62.707 144.238 C 62.946 142.994, 62.937 141.194, 62.687 140.238 C 62.437 139.282, 62.241 140.300, 62.252 142.500 M 200.320 145 C 200.320 148.575, 200.502 150.037, 200.723 148.250 C 200.945 146.463, 200.945 143.537, 200.723 141.750 C 200.502 139.963, 200.320 141.425, 200.320 145 M 42.158 145 C 42.158 146.375, 42.385 146.938, 42.662 146.250 C 42.940 145.563, 42.940 144.438, 42.662 143.750 C 42.385 143.063, 42.158 143.625, 42.158 145 M 217.195 149.500 C 217.215 151.150, 217.439 151.704, 217.693 150.731 C 217.947 149.758, 217.930 148.408, 217.656 147.731 C 217.382 147.054, 217.175 147.850, 217.195 149.500 M 41.252 151.500 C 41.263 153.700, 41.468 154.482, 41.707 153.238 C 41.946 151.994, 41.937 150.194, 41.687 149.238 C 41.437 148.282, 41.241 149.300, 41.252 151.500 M 62.320 159 C 62.320 162.575, 62.502 164.037, 62.723 162.250 C 62.945 160.463, 62.945 157.537, 62.723 155.750 C 62.502 153.963, 62.320 155.425, 62.320 159 M 218.360 162 C 218.360 167.225, 218.529 169.363, 218.735 166.750 C 218.941 164.137, 218.941 159.863, 218.735 157.250 C 218.529 154.637, 218.360 156.775, 218.360 162 M 40.310 162.500 C 40.315 165.800, 40.502 167.029, 40.725 165.232 C 40.947 163.435, 40.943 160.735, 40.715 159.232 C 40.486 157.729, 40.304 159.200, 40.310 162.500 M 200.160 159.625 C 200.072 161.344, 199.777 164.269, 199.503 166.125 L 199.007 169.500 200.059 166.146 C 200.638 164.301, 200.933 161.376, 200.716 159.646 L 200.320 156.500 200.160 159.625 M 63.086 167 C 63.055 167.825, 63.467 169.175, 64 170 C 65.181 171.828, 65.181 170.249, 64 167.500 C 63.433 166.181, 63.122 166.011, 63.086 167 M 41.195 171.500 C 41.215 173.150, 41.439 173.704, 41.693 172.731 C 41.947 171.758, 41.930 170.408, 41.656 169.731 C 41.382 169.054, 41.175 169.850, 41.195 171.500 M 198.079 170.668 C 198.036 171.311, 197.741 172.661, 197.424 173.668 C 196.877 175.409, 196.906 175.412, 197.995 173.712 C 198.626 172.729, 198.920 171.379, 198.650 170.712 C 198.295 169.837, 198.136 169.825, 198.079 170.668 M 217.079 173.583 C 217.127 174.748, 217.364 174.985, 217.683 174.188 C 217.972 173.466, 217.936 172.603, 217.604 172.271 C 217.272 171.939, 217.036 172.529, 217.079 173.583 M 42.625 178 C 42.974 179.925, 43.653 182.400, 44.135 183.500 C 44.735 184.873, 44.811 184.403, 44.375 182 C 44.026 180.075, 43.347 177.600, 42.865 176.500 C 42.265 175.127, 42.189 175.597, 42.625 178 M 68.511 180.377 C 69.457 181.820, 70.419 183, 70.650 183 C 71.374 183, 69.045 179.146, 67.891 178.433 C 67.287 178.059, 67.566 178.934, 68.511 180.377 M 212.162 187.543 C 210.487 191.220, 210.807 192.005, 212.618 188.662 C 213.464 187.100, 213.969 185.636, 213.741 185.407 C 213.512 185.179, 212.802 186.140, 212.162 187.543 M 183.392 195.769 C 180.033 198.921, 176.208 202.291, 174.892 203.259 C 173.145 204.543, 173.444 204.487, 176 203.052 C 179.039 201.345, 191.231 189.968, 189.966 190.019 C 189.710 190.029, 186.751 192.617, 183.392 195.769 M 209.144 194.750 C 208.053 197.300, 208.078 197.359, 209.484 195.559 C 210.318 194.491, 211 193.254, 211 192.809 C 211 191.289, 210.322 191.999, 209.144 194.750 M 51 200 C 52.122 202.200, 53.266 204, 53.541 204 C 53.816 204, 53.122 202.200, 52 200 C 50.878 197.800, 49.734 196, 49.459 196 C 49.184 196, 49.878 197.800, 51 200 M 88 200.430 C 88 200.705, 88.900 201.411, 90 202 C 91.100 202.589, 92 202.845, 92 202.570 C 92 202.295, 91.100 201.589, 90 201 C 88.900 200.411, 88 200.155, 88 200.430 M 54 205.378 C 54 205.585, 54.788 206.373, 55.750 207.128 C 57.336 208.371, 57.371 208.336, 56.128 206.750 C 54.821 205.084, 54 204.555, 54 205.378 M 97.733 206.124 C 98.412 206.808, 99.219 207.115, 99.526 206.807 C 99.834 206.499, 99.279 205.940, 98.293 205.564 C 96.868 205.022, 96.753 205.136, 97.733 206.124 M 165 208 C 164.175 208.533, 163.950 208.969, 164.500 208.969 C 165.050 208.969, 166.175 208.533, 167 208 C 167.825 207.467, 168.050 207.031, 167.500 207.031 C 166.950 207.031, 165.825 207.467, 165 208 M 104 208.851 C 104.825 209.335, 106.850 210.022, 108.500 210.379 C 110.420 210.794, 110.960 210.711, 110 210.149 C 109.175 209.665, 107.150 208.978, 105.500 208.621 C 103.580 208.206, 103.040 208.289, 104 208.851 M 156 211 C 150.036 213.502, 152.111 213.541, 158.500 211.046 C 161.250 209.972, 162.825 209.098, 162 209.103 C 161.175 209.108, 158.475 209.961, 156 211 M 59.500 213 C 60.495 214.100, 61.469 215, 61.663 215 C 61.858 215, 61.455 214.100, 60.768 213 C 60.081 211.900, 59.107 211, 58.604 211 C 58.102 211, 58.505 211.900, 59.500 213 M 114.500 212.536 C 116.150 213.292, 118.175 213.896, 119 213.879 C 119.825 213.862, 118.925 213.241, 117 212.500 C 112.434 210.742, 110.638 210.768, 114.500 212.536 M 148.813 213.683 C 149.534 213.972, 150.397 213.936, 150.729 213.604 C 151.061 213.272, 150.471 213.036, 149.417 213.079 C 148.252 213.127, 148.015 213.364, 148.813 213.683 M 134.813 214.683 C 135.534 214.972, 136.397 214.936, 136.729 214.604 C 137.061 214.272, 136.471 214.036, 135.417 214.079 C 134.252 214.127, 134.015 214.364, 134.813 214.683 M 62 216.425 C 62 216.649, 63.800 218.258, 66 220 C 68.200 221.742, 69.983 222.793, 69.962 222.334 C 69.925 221.514, 62 215.633, 62 216.425 M 191.924 218.750 L 189.500 221.500 192.250 219.076 C 193.762 217.742, 195 216.505, 195 216.326 C 195 215.541, 194.190 216.180, 191.924 218.750 M 74 225.495 C 74 226.165, 86.122 232.211, 86.569 231.764 C 86.771 231.563, 84.025 229.962, 80.468 228.208 C 76.911 226.454, 74 225.233, 74 225.495 M 179.736 228.309 C 177.116 229.957, 175.162 231.495, 175.394 231.728 C 175.720 232.053, 180.950 229.068, 184.917 226.292 C 185.146 226.131, 185.146 225.845, 184.917 225.657 C 184.688 225.468, 182.356 226.661, 179.736 228.309 M 165.500 236.055 C 163.300 237.096, 162.175 237.940, 163 237.932 C 163.825 237.923, 166.075 237.054, 168 236 C 172.491 233.541, 170.730 233.580, 165.500 236.055 M 97.500 236.536 C 99.150 237.292, 101.400 237.900, 102.500 237.888 C 103.600 237.876, 102.475 237.228, 100 236.448 C 94.448 234.699, 93.556 234.730, 97.500 236.536 M 107 239 C 108.375 239.440, 110.400 239.801, 111.500 239.801 C 113.084 239.801, 112.980 239.634, 111 239 C 109.625 238.560, 107.600 238.199, 106.500 238.199 C 104.916 238.199, 105.020 238.366, 107 239 M 156.500 239 C 155.239 239.542, 155.055 239.859, 156 239.859 C 156.825 239.859, 158.400 239.473, 159.500 239 C 160.761 238.458, 160.945 238.141, 160 238.141 C 159.175 238.141, 157.600 238.527, 156.500 239 M 117.813 241.683 C 118.534 241.972, 119.397 241.936, 119.729 241.604 C 120.061 241.272, 119.471 241.036, 118.417 241.079 C 117.252 241.127, 117.015 241.364, 117.813 241.683 M 148.813 241.683 C 149.534 241.972, 150.397 241.936, 150.729 241.604 C 151.061 241.272, 150.471 241.036, 149.417 241.079 C 148.252 241.127, 148.015 241.364, 148.813 241.683" stroke="none" fill="#f06e1a" fill-rule="evenodd"/><path d="M 162.500 21.432 C 152.083 24.093, 144.432 27.426, 137.822 32.181 C 132.499 36.010, 128.597 40.539, 129.442 41.906 C 129.757 42.416, 129.572 43.995, 129.032 45.416 L 128.050 48 136.558 48 C 143.667 48, 145.884 47.586, 150.033 45.483 C 156.423 42.245, 156.405 42.964, 149.997 46.907 C 147.246 48.600, 140.523 54.263, 135.059 59.493 C 129.595 64.722, 124.668 69, 124.112 69 C 123.555 69, 122.925 66.412, 122.710 63.250 L 122.321 57.500 122.410 63.421 C 122.467 67.154, 122.955 69.492, 123.731 69.748 C 124.408 69.971, 129.358 65.951, 134.731 60.814 C 140.260 55.527, 147.854 49.480, 152.227 46.880 C 156.477 44.354, 159.627 41.926, 159.227 41.483 C 158.827 41.041, 159.063 41.003, 159.751 41.400 C 160.440 41.796, 164.340 40.968, 168.419 39.560 C 177.627 36.382, 179.351 36.375, 175.500 39.531 C 173.850 40.883, 172.922 41.992, 173.437 41.995 C 173.952 41.998, 173.081 43.350, 171.500 45 L 168.626 48 180.778 48 C 192.073 48, 193.008 47.853, 194.046 45.914 C 194.660 44.767, 195.380 44.047, 195.647 44.314 C 196.625 45.291, 186.008 62.629, 181.817 66.899 C 179.358 69.404, 178.576 70.601, 180 69.680 C 181.375 68.791, 183.647 66.586, 185.049 64.781 C 191.515 56.459, 209.923 22.590, 208.665 21.331 C 207.418 20.084, 197.074 19.170, 184 19.150 C 174.188 19.136, 169.565 19.626, 162.500 21.432 M 125.944 46.393 C 124.801 48.978, 124.047 51.636, 124.269 52.297 C 124.491 52.959, 125.255 51.700, 125.967 49.500 C 126.678 47.300, 127.716 44.927, 128.273 44.226 C 128.830 43.525, 129.001 42.668, 128.655 42.321 C 128.308 41.975, 127.088 43.807, 125.944 46.393 M 166 45.994 C 162.975 48.134, 158.025 52.211, 155 55.053 L 149.500 60.221 155.090 55.670 C 158.165 53.166, 163.453 49.277, 166.840 47.027 C 170.228 44.777, 173 42.725, 173 42.468 C 173 41.405, 171.210 42.306, 166 45.994 M 123.079 55.583 C 123.127 56.748, 123.364 56.985, 123.683 56.188 C 123.972 55.466, 123.936 54.603, 123.604 54.271 C 123.272 53.939, 123.036 54.529, 123.079 55.583 M 142.558 69.552 C 138.837 74.497, 136.982 77.862, 137.187 79.302 C 137.479 81.350, 138.047 81.505, 145.500 81.572 L 153.500 81.644 145.750 81.280 C 138.653 80.947, 138 80.738, 138 78.811 C 138 77.653, 139.487 74.860, 141.305 72.603 C 145.543 67.342, 149.263 62, 148.689 62 C 148.443 62, 145.685 65.398, 142.558 69.552 M 172.500 73.233 C 171.400 73.877, 168.025 75.428, 165 76.678 C 161.975 77.929, 160.175 78.963, 161 78.975 C 162.723 79.002, 175 73.360, 175 72.542 C 175 71.820, 174.832 71.866, 172.500 73.233 M 160.813 90.683 C 161.534 90.972, 162.397 90.936, 162.729 90.604 C 163.061 90.272, 162.471 90.036, 161.417 90.079 C 160.252 90.127, 160.015 90.364, 160.813 90.683 M 166.813 91.683 C 167.534 91.972, 168.397 91.936, 168.729 91.604 C 169.061 91.272, 168.471 91.036, 167.417 91.079 C 166.252 91.127, 166.015 91.364, 166.813 91.683 M 198.500 109 C 201.766 112.300, 204.662 115, 204.937 115 C 205.212 115, 202.766 112.300, 199.500 109 C 196.234 105.700, 193.338 103, 193.063 103 C 192.788 103, 195.234 105.700, 198.500 109 M 127 109.378 C 127 109.585, 127.787 110.373, 128.750 111.128 C 130.336 112.371, 130.371 112.336, 129.128 110.750 C 127.821 109.084, 127 108.555, 127 109.378 M 132 114.378 C 132 114.585, 132.787 115.373, 133.750 116.128 C 135.336 117.371, 135.371 117.336, 134.128 115.750 C 132.821 114.084, 132 113.555, 132 114.378 M 205 116.378 C 205 116.585, 205.787 117.373, 206.750 118.128 C 208.336 119.371, 208.371 119.336, 207.128 117.750 C 205.821 116.084, 205 115.555, 205 116.378 M 198.079 141.583 C 198.127 142.748, 198.364 142.985, 198.683 142.188 C 198.972 141.466, 198.936 140.603, 198.604 140.271 C 198.272 139.939, 198.036 140.529, 198.079 141.583 M 39.158 154 C 39.158 155.375, 39.385 155.938, 39.662 155.250 C 39.940 154.563, 39.940 153.438, 39.662 152.750 C 39.385 152.063, 39.158 152.625, 39.158 154 M 199.158 155 C 199.158 156.375, 199.385 156.938, 199.662 156.250 C 199.940 155.563, 199.940 154.438, 199.662 153.750 C 199.385 153.063, 199.158 153.625, 199.158 155 M 220.286 162.500 C 220.294 165.250, 220.488 166.256, 220.718 164.736 C 220.947 163.216, 220.941 160.966, 220.704 159.736 C 220.467 158.506, 220.279 159.750, 220.286 162.500 M 64.158 161 C 64.158 162.375, 64.385 162.938, 64.662 162.250 C 64.940 161.563, 64.940 160.438, 64.662 159.750 C 64.385 159.063, 64.158 159.625, 64.158 161 M 198.079 162.583 C 198.127 163.748, 198.364 163.985, 198.683 163.188 C 198.972 162.466, 198.936 161.603, 198.604 161.271 C 198.272 160.939, 198.036 161.529, 198.079 162.583 M 183 194.500 C 180.571 196.975, 178.809 199, 179.084 199 C 179.359 199, 181.571 196.975, 184 194.500 C 186.429 192.025, 188.191 190, 187.916 190 C 187.641 190, 185.429 192.025, 183 194.500 M 84 195.378 C 84 195.585, 84.787 196.373, 85.750 197.128 C 87.336 198.371, 87.371 198.336, 86.128 196.750 C 84.821 195.084, 84 194.555, 84 195.378" stroke="none" fill="#65c26e" fill-rule="evenodd"/><path d="M 127.730 45.214 C 124.643 51.839, 123 58.200, 123 63.535 C 123 66.724, 123.442 69, 124.062 69 C 124.646 69, 129.595 64.722, 135.059 59.493 C 140.523 54.263, 147.246 48.600, 149.997 46.907 C 156.405 42.964, 156.423 42.245, 150.033 45.483 C 145.884 47.586, 143.667 48, 136.558 48 L 128.050 48 129.053 45.361 C 130.523 41.493, 129.517 41.381, 127.730 45.214 M 166.517 47.060 C 162.677 49.740, 157.052 54.310, 154.017 57.216 C 147.250 63.697, 138 76.274, 138 78.996 C 138 80.832, 138.661 81, 145.881 81 C 151.856 81, 155.373 80.394, 160.426 78.492 C 171.046 74.494, 178.320 70.463, 182.361 66.335 C 186.139 62.475, 196.551 45.218, 195.647 44.314 C 195.380 44.047, 194.660 44.767, 194.046 45.914 C 193.008 47.853, 192.073 48, 180.778 48 L 168.626 48 171.500 45 C 175.247 41.089, 174.825 41.263, 166.517 47.060" stroke="none" fill="#5ebf68" fill-rule="evenodd"/><path d="M 144 92.117 C 144 92.741, 144.882 93.003, 146 92.710 C 147.100 92.423, 148 92.595, 148 93.094 C 148 93.592, 148.477 94, 149.059 94 C 149.641 94, 149.795 93.478, 149.401 92.840 C 148.869 91.979, 150.854 91.817, 157.092 92.215 C 161.716 92.509, 164.150 92.410, 162.500 91.994 C 157.587 90.754, 144 90.844, 144 92.117 M 166.750 93.662 C 167.438 93.940, 168.563 93.940, 169.250 93.662 C 169.938 93.385, 169.375 93.158, 168 93.158 C 166.625 93.158, 166.063 93.385, 166.750 93.662 M 171.813 94.683 C 172.534 94.972, 173.397 94.936, 173.729 94.604 C 174.061 94.272, 173.471 94.036, 172.417 94.079 C 171.252 94.127, 171.015 94.364, 171.813 94.683 M 175.083 95.365 C 175.313 95.565, 176.625 96.265, 178 96.920 C 180.357 98.042, 180.389 98.022, 178.559 96.555 C 176.966 95.279, 173.711 94.164, 175.083 95.365 M 162 98 C 162.825 98.533, 163.950 98.969, 164.500 98.969 C 165.050 98.969, 164.825 98.533, 164 98 C 163.175 97.467, 162.050 97.031, 161.500 97.031 C 160.950 97.031, 161.175 97.467, 162 98 M 166.733 100.124 C 167.412 100.808, 168.219 101.115, 168.526 100.807 C 168.834 100.499, 168.279 99.940, 167.293 99.564 C 165.868 99.022, 165.753 99.136, 166.733 100.124 M 72.250 101.031 C 68.901 102.377, 69.527 103.061, 73 101.850 C 74.650 101.275, 76 100.623, 76 100.402 C 76 99.809, 74.783 100.013, 72.250 101.031 M 106 101 C 106.825 101.533, 107.950 101.969, 108.500 101.969 C 109.050 101.969, 108.825 101.533, 108 101 C 107.175 100.467, 106.050 100.031, 105.500 100.031 C 104.950 100.031, 105.175 100.467, 106 101 M 111 103 C 111.825 103.533, 113.175 103.945, 114 103.914 C 114.989 103.878, 114.819 103.567, 113.500 103 C 110.751 101.819, 109.172 101.819, 111 103 M 64.861 105.056 C 63.005 106.673, 62.928 106.894, 64.500 106.090 C 67.892 104.355, 69.554 103.031, 68.361 103.015 C 67.734 103.007, 66.159 103.925, 64.861 105.056 M 193 105.500 C 194.292 106.875, 195.574 108, 195.849 108 C 196.124 108, 195.292 106.875, 194 105.500 C 192.708 104.125, 191.426 103, 191.151 103 C 190.876 103, 191.708 104.125, 193 105.500 M 116.483 104.973 C 116.750 105.405, 117.876 105.996, 118.986 106.286 C 120.095 106.576, 120.784 106.460, 120.517 106.027 C 120.250 105.595, 119.124 105.004, 118.014 104.714 C 116.905 104.424, 116.216 104.540, 116.483 104.973 M 57.946 111.750 L 54.500 115.500 58.250 112.054 C 61.740 108.846, 62.460 108, 61.696 108 C 61.529 108, 59.842 109.688, 57.946 111.750 M 95.813 108.683 C 96.534 108.972, 97.397 108.936, 97.729 108.604 C 98.061 108.272, 97.471 108.036, 96.417 108.079 C 95.252 108.127, 95.015 108.364, 95.813 108.683 M 109 109.409 C 115.843 111.992, 116.458 112.098, 113 110.103 C 111.075 108.993, 108.600 108.085, 107.500 108.086 C 106.254 108.087, 106.820 108.586, 109 109.409 M 181.910 109.832 C 182.450 110.840, 183.676 112.302, 184.637 113.082 C 185.717 113.960, 185.475 113.261, 184.003 111.250 C 181.377 107.662, 180.392 106.995, 181.910 109.832 M 198 110.313 C 198 110.485, 199.463 111.948, 201.250 113.563 L 204.500 116.500 201.563 113.250 C 198.825 110.221, 198 109.540, 198 110.313 M 85 112 C 84.175 112.533, 83.950 112.969, 84.500 112.969 C 85.050 112.969, 86.175 112.533, 87 112 C 87.825 111.467, 88.050 111.031, 87.500 111.031 C 86.950 111.031, 85.825 111.467, 85 112 M 127 111.313 C 127 111.485, 128.463 112.948, 130.250 114.563 L 133.500 117.500 130.563 114.250 C 127.825 111.221, 127 110.540, 127 111.313 M 117.733 113.124 C 118.412 113.808, 119.219 114.115, 119.526 113.807 C 119.834 113.499, 119.279 112.940, 118.293 112.564 C 116.868 112.022, 116.753 112.136, 117.733 113.124 M 77.872 115.664 C 76.628 117.172, 76.710 117.216, 78.750 116.129 C 81.077 114.889, 81.650 114, 80.122 114 C 79.640 114, 78.627 114.749, 77.872 115.664 M 121 114.430 C 121 114.705, 121.900 115.411, 123 116 C 124.100 116.589, 125 116.845, 125 116.570 C 125 116.295, 124.100 115.589, 123 115 C 121.900 114.411, 121 114.155, 121 114.430 M 206.222 120.549 C 207.624 122.777, 209.784 126.953, 211.022 129.830 C 212.260 132.707, 213.470 134.863, 213.711 134.622 C 214.390 133.943, 206.970 119.219, 205.223 117.779 C 204.369 117.075, 204.819 118.322, 206.222 120.549 M 51.459 120.067 C 51.096 120.653, 51.014 121.348, 51.276 121.610 C 51.538 121.872, 52.019 121.392, 52.345 120.543 C 53.021 118.781, 52.445 118.471, 51.459 120.067 M 130.006 120.741 C 130.013 121.547, 136.067 125.266, 136.564 124.769 C 136.725 124.608, 135.314 123.465, 133.428 122.229 C 131.543 120.993, 130.003 120.323, 130.006 120.741 M 191 120.483 C 191 120.813, 191.956 122.077, 193.123 123.292 L 195.247 125.500 194.118 123.306 C 193.001 121.134, 191 119.323, 191 120.483 M 69.405 124.250 L 67.500 126.500 69.750 124.595 C 70.987 123.547, 72 122.535, 72 122.345 C 72 121.545, 71.195 122.136, 69.405 124.250 M 49.459 124.067 C 49.096 124.653, 49.014 125.348, 49.276 125.610 C 49.538 125.872, 50.019 125.392, 50.345 124.543 C 51.021 122.781, 50.445 122.471, 49.459 124.067 M 196.564 130.293 C 196.940 131.279, 197.499 131.834, 197.807 131.526 C 198.115 131.219, 197.808 130.412, 197.124 129.733 C 196.136 128.753, 196.022 128.868, 196.564 130.293 M 63.624 134.539 C 63.281 135.432, 63.029 136.689, 63.063 137.332 C 63.098 137.974, 63.558 137.422, 64.085 136.105 C 64.612 134.787, 64.864 133.531, 64.645 133.312 C 64.426 133.093, 63.966 133.645, 63.624 134.539 M 198.086 133.500 C 198.190 135.394, 199.856 138.584, 199.914 137 C 199.945 136.175, 199.533 134.825, 199 134 C 198.467 133.175, 198.055 132.950, 198.086 133.500 M 43.571 138.571 C 43.204 140.037, 43.096 141.429, 43.331 141.665 C 43.567 141.900, 44.061 140.894, 44.429 139.429 C 44.796 137.963, 44.904 136.571, 44.669 136.335 C 44.433 136.100, 43.939 137.106, 43.571 138.571 M 62.252 142.500 C 62.263 144.700, 62.468 145.482, 62.707 144.238 C 62.946 142.994, 62.937 141.194, 62.687 140.238 C 62.437 139.282, 62.241 140.300, 62.252 142.500 M 200.320 145 C 200.320 148.575, 200.502 150.037, 200.723 148.250 C 200.945 146.463, 200.945 143.537, 200.723 141.750 C 200.502 139.963, 200.320 141.425, 200.320 145 M 42.158 145 C 42.158 146.375, 42.385 146.938, 42.662 146.250 C 42.940 145.563, 42.940 144.438, 42.662 143.750 C 42.385 143.063, 42.158 143.625, 42.158 145 M 217.195 149.500 C 217.215 151.150, 217.439 151.704, 217.693 150.731 C 217.947 149.758, 217.930 148.408, 217.656 147.731 C 217.382 147.054, 217.175 147.850, 217.195 149.500 M 41.252 151.500 C 41.263 153.700, 41.468 154.482, 41.707 153.238 C 41.946 151.994, 41.937 150.194, 41.687 149.238 C 41.437 148.282, 41.241 149.300, 41.252 151.500 M 62.320 159 C 62.320 162.575, 62.502 164.037, 62.723 162.250 C 62.945 160.463, 62.945 157.537, 62.723 155.750 C 62.502 153.963, 62.320 155.425, 62.320 159 M 218.360 162 C 218.360 167.225, 218.529 169.363, 218.735 166.750 C 218.941 164.137, 218.941 159.863, 218.735 157.250 C 218.529 154.637, 218.360 156.775, 218.360 162 M 40.310 162.500 C 40.315 165.800, 40.502 167.029, 40.725 165.232 C 40.947 163.435, 40.943 160.735, 40.715 159.232 C 40.486 157.729, 40.304 159.200, 40.310 162.500 M 200.160 159.625 C 200.072 161.344, 199.777 164.269, 199.503 166.125 L 199.007 169.500 200.059 166.146 C 200.638 164.301, 200.933 161.376, 200.716 159.646 L 200.320 156.500 200.160 159.625 M 63.086 167 C 63.055 167.825, 63.467 169.175, 64 170 C 65.181 171.828, 65.181 170.249, 64 167.500 C 63.433 166.181, 63.122 166.011, 63.086 167 M 41.195 171.500 C 41.215 173.150, 41.439 173.704, 41.693 172.731 C 41.947 171.758, 41.930 170.408, 41.656 169.731 C 41.382 169.054, 41.175 169.850, 41.195 171.500 M 198.079 170.668 C 198.036 171.311, 197.741 172.661, 197.424 173.668 C 196.877 175.409, 196.906 175.412, 197.995 173.712 C 198.626 172.729, 198.920 171.379, 198.650 170.712 C 198.295 169.837, 198.136 169.825, 198.079 170.668 M 217.079 173.583 C 217.127 174.748, 217.364 174.985, 217.683 174.188 C 217.972 173.466, 217.936 172.603, 217.604 172.271 C 217.272 171.939, 217.036 172.529, 217.079 173.583 M 42.625 178 C 42.974 179.925, 43.653 182.400, 44.135 183.500 C 44.735 184.873, 44.811 184.403, 44.375 182 C 44.026 180.075, 43.347 177.600, 42.865 176.500 C 42.265 175.127, 42.189 175.597, 42.625 178 M 68.511 180.377 C 69.457 181.820, 70.419 183, 70.650 183 C 71.374 183, 69.045 179.146, 67.891 178.433 C 67.287 178.059, 67.566 178.934, 68.511 180.377 M 212.162 187.543 C 210.487 191.220, 210.807 192.005, 212.618 188.662 C 213.464 187.100, 213.969 185.636, 213.741 185.407 C 213.512 185.179, 212.802 186.140, 212.162 187.543 M 183.392 195.769 C 180.033 198.921, 176.208 202.291, 174.892 203.259 C 173.145 204.543, 173.444 204.487, 176 203.052 C 179.039 201.345, 191.231 189.968, 189.966 190.019 C 189.710 190.029, 186.751 192.617, 183.392 195.769 M 79 193.500 C 80.292 194.875, 81.574 196, 81.849 196 C 82.124 196, 81.292 194.875, 80 193.500 C 78.708 192.125, 77.426 191, 77.151 191 C 76.876 191, 77.708 192.125, 79 193.500 M 209.144 194.750 C 208.053 197.300, 208.078 197.359, 209.484 195.559 C 210.318 194.491, 211 193.254, 211 192.809 C 211 191.289, 210.322 191.999, 209.144 194.750 M 51 200 C 52.122 202.200, 53.266 204, 53.541 204 C 53.816 204, 53.122 202.200, 52 200 C 50.878 197.800, 49.734 196, 49.459 196 C 49.184 196, 49.878 197.800, 51 200 M 84 197.378 C 84 197.585, 84.787 198.373, 85.750 199.128 C 87.336 200.371, 87.371 200.336, 86.128 198.750 C 84.821 197.084, 84 196.555, 84 197.378 M 88 200.430 C 88 200.705, 88.900 201.411, 90 202 C 91.100 202.589, 92 202.845, 92 202.570 C 92 202.295, 91.100 201.589, 90 201 C 88.900 200.411, 88 200.155, 88 200.430 M 54 205.378 C 54 205.585, 54.788 206.373, 55.750 207.128 C 57.336 208.371, 57.371 208.336, 56.128 206.750 C 54.821 205.084, 54 204.555, 54 205.378 M 97.733 206.124 C 98.412 206.808, 99.219 207.115, 99.526 206.807 C 99.834 206.499, 99.279 205.940, 98.293 205.564 C 96.868 205.022, 96.753 205.136, 97.733 206.124 M 165 208 C 164.175 208.533, 163.950 208.969, 164.500 208.969 C 165.050 208.969, 166.175 208.533, 167 208 C 167.825 207.467, 168.050 207.031, 167.500 207.031 C 166.950 207.031, 165.825 207.467, 165 208 M 104 208.851 C 104.825 209.335, 106.850 210.022, 108.500 210.379 C 110.420 210.794, 110.960 210.711, 110 210.149 C 109.175 209.665, 107.150 208.978, 105.500 208.621 C 103.580 208.206, 103.040 208.289, 104 208.851 M 156 211 C 150.036 213.502, 152.111 213.541, 158.500 211.046 C 161.250 209.972, 162.825 209.098, 162 209.103 C 161.175 209.108, 158.475 209.961, 156 211 M 198.405 211.250 L 196.500 213.500 198.750 211.595 C 199.988 210.547, 201 209.535, 201 209.345 C 201 208.545, 200.195 209.136, 198.405 211.250 M 59.500 213 C 60.495 214.100, 61.469 215, 61.663 215 C 61.858 215, 61.455 214.100, 60.768 213 C 60.081 211.900, 59.107 211, 58.604 211 C 58.102 211, 58.505 211.900, 59.500 213 M 114.500 212.536 C 116.150 213.292, 118.175 213.896, 119 213.879 C 119.825 213.862, 118.925 213.241, 117 212.500 C 112.434 210.742, 110.638 210.768, 114.500 212.536 M 148.813 213.683 C 149.534 213.972, 150.397 213.936, 150.729 213.604 C 151.061 213.272, 150.471 213.036, 149.417 213.079 C 148.252 213.127, 148.015 213.364, 148.813 213.683 M 134.813 214.683 C 135.534 214.972, 136.397 214.936, 136.729 214.604 C 137.061 214.272, 136.471 214.036, 135.417 214.079 C 134.252 214.127, 134.015 214.364, 134.813 214.683 M 62 216.425 C 62 216.649, 63.800 218.258, 66 220 C 68.200 221.742, 69.983 222.793, 69.962 222.334 C 69.925 221.514, 62 215.633, 62 216.425 M 191.924 218.750 L 189.500 221.500 192.250 219.076 C 193.762 217.742, 195 216.505, 195 216.326 C 195 215.541, 194.190 216.180, 191.924 218.750 M 74 225.495 C 74 226.165, 86.122 232.211, 86.569 231.764 C 86.771 231.563, 84.025 229.962, 80.468 228.208 C 76.911 226.454, 74 225.233, 74 225.495 M 179.736 228.309 C 177.116 229.957, 175.162 231.495, 175.394 231.728 C 175.720 232.053, 180.950 229.068, 184.917 226.292 C 185.146 226.131, 185.146 225.845, 184.917 225.657 C 184.688 225.468, 182.356 226.661, 179.736 228.309 M 165.500 236.055 C 163.300 237.096, 162.175 237.940, 163 237.932 C 163.825 237.923, 166.075 237.054, 168 236 C 172.491 233.541, 170.730 233.580, 165.500 236.055 M 97.500 236.536 C 99.150 237.292, 101.400 237.900, 102.500 237.888 C 103.600 237.876, 102.475 237.228, 100 236.448 C 94.448 234.699, 93.556 234.730, 97.500 236.536 M 107 239 C 108.375 239.440, 110.400 239.801, 111.500 239.801 C 113.084 239.801, 112.980 239.634, 111 239 C 109.625 238.560, 107.600 238.199, 106.500 238.199 C 104.916 238.199, 105.020 238.366, 107 239 M 156.500 239 C 155.239 239.542, 155.055 239.859, 156 239.859 C 156.825 239.859, 158.400 239.473, 159.500 239 C 160.761 238.458, 160.945 238.141, 160 238.141 C 159.175 238.141, 157.600 238.527, 156.500 239 M 117.813 241.683 C 118.534 241.972, 119.397 241.936, 119.729 241.604 C 120.061 241.272, 119.471 241.036, 118.417 241.079 C 117.252 241.127, 117.015 241.364, 117.813 241.683 M 148.813 241.683 C 149.534 241.972, 150.397 241.936, 150.729 241.604 C 151.061 241.272, 150.471 241.036, 149.417 241.079 C 148.252 241.127, 148.015 241.364, 148.813 241.683" stroke="none" fill="#f46d1c" fill-rule="evenodd"/></svg>